<svg width="151" height="35" viewBox="0 0 151 35" fill="none" xmlns="http://www.w3.org/2000/svg">
<path d="M7.53125 19.7812C6.61458 19.8646 5.71875 19.8542 4.84375 19.75C3.98958 19.625 3.22917 19.3958 2.5625 19.0625C1.875 18.7083 1.32292 18.2396 0.90625 17.6562C0.46875 17.0521 0.21875 16.3125 0.15625 15.4375C0.09375 14.625 0.229167 13.9375 0.5625 13.375C0.875 12.8125 1.28125 12.3854 1.78125 12.0938C2.28125 11.8021 2.84375 11.6354 3.46875 11.5938C4.07292 11.5312 4.63542 11.6042 5.15625 11.8125C5.69792 12 6.15625 12.3229 6.53125 12.7812C6.90625 13.2188 7.11458 13.7708 7.15625 14.4375C7.21875 15.3958 7.02083 16.0833 6.5625 16.5C6.10417 16.9167 5.55208 17.1354 4.90625 17.1562C4.26042 17.1771 3.70833 17.0417 3.25 16.75C2.77083 16.4583 2.51042 15.9792 2.46875 15.3125C2.44792 14.9792 2.48958 14.6979 2.59375 14.4688C2.67708 14.2188 2.79167 14.0208 2.9375 13.875C3.0625 13.7083 3.21875 13.5938 3.40625 13.5312C3.59375 13.4479 3.77083 13.4062 3.9375 13.4062C4.29167 13.3854 4.57292 13.4688 4.78125 13.6562C5.01042 13.8229 5.14583 14.0833 5.1875 14.4375C5.20833 14.7708 5.11458 15.0104 4.90625 15.1562C4.69792 15.2812 4.45833 15.2917 4.1875 15.1875C4 15.125 3.89583 14.9792 3.875 14.75C3.83333 14.5208 3.86458 14.3125 3.96875 14.125C3.78125 14.1667 3.625 14.2604 3.5 14.4062C3.375 14.5521 3.3125 14.7708 3.3125 15.0625C3.3125 15.4375 3.41667 15.7604 3.625 16.0312C3.83333 16.2812 4.22917 16.3854 4.8125 16.3438C5.10417 16.3438 5.33333 16.2708 5.5 16.125C5.6875 15.9792 5.83333 15.8125 5.9375 15.625C6.04167 15.4375 6.10417 15.25 6.125 15.0625C6.16667 14.8542 6.1875 14.6875 6.1875 14.5625C6.1875 14.4375 6.15625 14.25 6.09375 14C6.05208 13.75 5.9375 13.5104 5.75 13.2812C5.58333 13.0312 5.33333 12.8125 5 12.625C4.6875 12.4375 4.26042 12.3229 3.71875 12.2812C3.15625 12.2604 2.69792 12.3542 2.34375 12.5625C1.98958 12.75 1.70833 13 1.5 13.3125C1.29167 13.625 1.14583 13.9583 1.0625 14.3125C0.979167 14.6667 0.947917 14.9792 0.96875 15.25C0.989583 15.7917 1.15625 16.2812 1.46875 16.7188C1.76042 17.1562 2.20833 17.5208 2.8125 17.8125C3.39583 18.0833 4.125 18.2708 5 18.375C5.89583 18.4792 6.92708 18.4583 8.09375 18.3125C8.40625 17.5208 8.70833 16.6979 9 15.8438C9.29167 14.9896 9.5625 14.1458 9.8125 13.3125C10.0625 12.4792 10.2812 11.6667 10.4688 10.875C10.6562 10.0833 10.7917 9.35417 10.875 8.6875C11.0625 7.10417 10.9062 5.86458 10.4062 4.96875C9.90625 4.05208 9.16667 3.57292 8.1875 3.53125L8.3125 2.71875C8.6875 2.78125 9.21875 2.85417 9.90625 2.9375C10.6146 3.02083 11.3854 3.09375 12.2188 3.15625C13.0521 3.19792 13.8854 3.21875 14.7188 3.21875C15.5521 3.19792 16.3021 3.11458 16.9688 2.96875L17 3.46875C16.7292 3.55208 16.4792 3.63542 16.25 3.71875C16.0208 3.80208 15.8333 3.91667 15.6875 4.0625C15.5417 4.1875 15.4375 4.36458 15.375 4.59375C15.3125 4.80208 15.3229 5.07292 15.4062 5.40625C15.4896 5.76042 15.625 6.4375 15.8125 7.4375C16 8.4375 16.2292 9.61458 16.5 10.9688C16.7708 12.3229 17.0833 13.7812 17.4375 15.3438C17.7917 16.9062 18.1771 18.4062 18.5938 19.8438C19.0104 21.2812 19.4271 22.5521 19.8438 23.6562C20.2812 24.7604 20.7188 25.6667 21.1562 26.375C21.5938 27.0625 22.0417 27.5312 22.5 27.7812C22.9583 28.0521 23.4375 28.0729 23.9375 27.8438C24.1875 27.6979 24.4062 27.5 24.5938 27.25C24.7604 27.0208 24.9062 26.7292 25.0312 26.375C25.1562 26.0208 25.2292 25.5729 25.25 25.0312L25.7188 24.9375C25.8021 25.2708 25.8229 25.6979 25.7812 26.2188C25.7396 26.7188 25.625 27.2188 25.4375 27.7188C25.25 28.2188 24.9688 28.6562 24.5938 29.0312C24.2188 29.4271 23.7396 29.6562 23.1562 29.7188C22.6771 29.7812 22.1354 29.7604 21.5312 29.6562C20.9479 29.5521 20.3542 29.25 19.75 28.75C19.1667 28.25 18.5938 27.4792 18.0312 26.4375C17.4896 25.3958 17.0208 23.9688 16.625 22.1562C16.5208 21.6354 16.4167 21.125 16.3125 20.625C16.2083 20.1042 16.1042 19.6042 16 19.125C15.3958 19.1667 14.5729 19.2188 13.5312 19.2812C12.4896 19.3438 11.4062 19.4167 10.2812 19.5C9.96875 20.8125 9.72917 21.9792 9.5625 23C9.45833 23.625 9.40625 24.1354 9.40625 24.5312C9.42708 24.9271 9.48958 25.25 9.59375 25.5C9.69792 25.7292 9.86458 25.9167 10.0938 26.0625C10.3438 26.2083 10.6562 26.3438 11.0312 26.4688L11 27.125C10.6458 27.0417 10.1042 26.9896 9.375 26.9688C8.64583 26.9479 7.86458 26.9583 7.03125 27C6.21875 27.0625 5.40625 27.1562 4.59375 27.2812C3.80208 27.4271 3.17708 27.625 2.71875 27.875L2.46875 26.8125C2.90625 26.625 3.28125 26.5 3.59375 26.4375C3.88542 26.3542 4.14583 26.25 4.375 26.125C4.60417 25.9792 4.82292 25.7708 5.03125 25.5C5.23958 25.2083 5.45833 24.7812 5.6875 24.2188C5.875 23.8021 6.125 23.2083 6.4375 22.4375C6.77083 21.6667 7.14583 20.7812 7.5625 19.7812H7.53125ZM13.6562 6.65625C13.4896 7.32292 13.2812 8.09375 13.0312 8.96875C12.7812 9.84375 12.5208 10.7812 12.25 11.7812C11.9792 12.7604 11.6979 13.7812 11.4062 14.8438C11.1354 15.9062 10.875 16.9479 10.625 17.9688C11.6042 17.8229 12.5208 17.7083 13.375 17.625C14.25 17.5417 15.0104 17.4792 15.6562 17.4375C15.1771 15.1875 14.7604 13.1667 14.4062 11.375C14.0521 9.58333 13.8021 8.01042 13.6562 6.65625ZM26.7188 15.2188C26.9688 14.4479 27.3229 13.6771 27.7812 12.9062C28.2396 12.1354 28.7604 11.4479 29.3438 10.8438C29.9479 10.2188 30.5938 9.72917 31.2812 9.375C31.9896 9.02083 32.7188 8.86458 33.4688 8.90625C34.1562 8.96875 34.7188 9.27083 35.1562 9.8125C35.6146 10.3542 35.9792 11 36.25 11.75C36.5208 12.4792 36.6979 13.2396 36.7812 14.0312C36.8854 14.8021 36.9271 15.4479 36.9062 15.9688C36.8646 16.6146 36.7292 17.2396 36.5 17.8438C36.2917 18.4271 36.0521 19.0208 35.7812 19.625C35.5312 20.2083 35.2917 20.8125 35.0625 21.4375C34.8333 22.0625 34.6979 22.7188 34.6562 23.4062C34.6146 24.0938 34.6875 24.75 34.875 25.375C35.0833 25.9792 35.375 26.4479 35.75 26.7812C36.125 27.1146 36.5625 27.25 37.0625 27.1875C37.5833 27.1458 38.1146 26.7917 38.6562 26.125L39.0625 26.4688C38.8542 26.8229 38.5104 27.1667 38.0312 27.5C37.5521 27.8542 36.9896 28.0312 36.3438 28.0312C35.9062 28.0312 35.4688 27.9375 35.0312 27.75C34.6146 27.5833 34.2292 27.3125 33.875 26.9375C33.5417 26.5417 33.2604 26.0417 33.0312 25.4375C32.8229 24.8333 32.7083 24.0938 32.6875 23.2188C32.6875 22.4896 32.7812 21.8125 32.9688 21.1875C33.1562 20.5625 33.3542 19.9375 33.5625 19.3125C33.7917 18.6875 33.9896 18.0417 34.1562 17.375C34.3438 16.6875 34.4271 15.9271 34.4062 15.0938C34.3646 14.3229 34.2396 13.6979 34.0312 13.2188C33.8438 12.7188 33.6042 12.3438 33.3125 12.0938C33.0417 11.8229 32.7396 11.6562 32.4062 11.5938C32.0938 11.5104 31.8021 11.4896 31.5312 11.5312C30.9688 11.6354 30.3958 11.9583 29.8125 12.5C29.2292 13.0208 28.6979 13.6875 28.2188 14.5C27.7604 15.2917 27.3854 16.1979 27.0938 17.2188C26.8021 18.2396 26.6458 19.2812 26.625 20.3438V20.2812C26.625 20.8021 26.6146 21.2604 26.5938 21.6562C26.5729 22.0521 26.5833 22.3854 26.625 22.6562C26.625 23.2604 26.6771 23.7396 26.7812 24.0938C26.9062 24.4271 27.0417 24.6875 27.1875 24.875C27.3333 25.0625 27.4896 25.1979 27.6562 25.2812C27.8438 25.3438 28 25.3854 28.125 25.4062L28.0938 25.9688C27.8021 25.9062 27.4271 25.875 26.9688 25.875C26.5312 25.8542 26.0521 25.875 25.5312 25.9375C25.0104 26 24.4688 26.1146 23.9062 26.2812C23.3646 26.4479 22.8646 26.6771 22.4062 26.9688L22.1875 26.5312C22.5 26.2812 22.7708 26.0625 23 25.875C23.25 25.6667 23.4583 25.4062 23.625 25.0938C23.8125 24.7812 23.9688 24.375 24.0938 23.875C24.2188 23.375 24.3125 22.7188 24.375 21.9062C24.5 20.2604 24.5833 18.6458 24.625 17.0625C24.6667 15.4583 24.625 13.9688 24.5 12.5938C24.4583 12.1562 24.3438 11.8229 24.1562 11.5938C23.9896 11.3646 23.7812 11.2083 23.5312 11.125C23.2812 11.0208 23.0208 10.9688 22.75 10.9688C22.4792 10.9688 22.2188 10.9792 21.9688 11L21.9375 10.4688C22.3958 10.4271 22.8646 10.375 23.3438 10.3125C23.8438 10.25 24.3229 10.1875 24.7812 10.125C25.2396 10.0625 25.6458 10 26 9.9375C26.375 9.85417 26.6667 9.76042 26.875 9.65625C26.8333 10.3229 26.8021 10.9896 26.7812 11.6562C26.7812 12.3021 26.7708 12.8958 26.75 13.4375C26.7292 14.0625 26.7188 14.6562 26.7188 15.2188ZM38.5625 26.8438C39.0417 26.6771 39.4375 26.4583 39.75 26.1875C40.0625 25.9167 40.3021 25.6458 40.4688 25.375C40.6771 25.0625 40.8125 24.7396 40.875 24.4062C41.3333 22.2812 41.5625 20.2604 41.5625 18.3438C41.5625 16.4062 41.4167 14.75 41.125 13.375C41.0417 12.9375 40.8854 12.5312 40.6562 12.1562C40.4688 11.8438 40.2083 11.5521 39.875 11.2812C39.5417 10.9896 39.1146 10.8021 38.5938 10.7188L38.5625 10.2188C38.9792 10.2604 39.3646 10.2917 39.7188 10.3125C40.0938 10.3125 40.4167 10.3125 40.6875 10.3125H41.5625C41.8125 10.3333 42.0625 10.3438 42.3125 10.3438C42.5417 10.3646 42.7708 10.375 43 10.375C43.25 10.375 43.4896 10.3958 43.7188 10.4375C43.6562 11.1875 43.6042 11.9583 43.5625 12.75C43.5208 13.5208 43.4896 14.2188 43.4688 14.8438C43.4271 15.5729 43.4062 16.2812 43.4062 16.9688C43.3646 17.7396 43.3333 18.5833 43.3125 19.5C43.2917 20.3958 43.3021 21.25 43.3438 22.0625C43.3854 22.875 43.4583 23.5938 43.5625 24.2188C43.6667 24.8229 43.8333 25.2188 44.0625 25.4062C44.1875 25.4896 44.3542 25.5729 44.5625 25.6562C44.7292 25.7396 44.9479 25.8229 45.2188 25.9062C45.5104 25.9896 45.8646 26.0729 46.2812 26.1562L46.3125 26.6875C45.8958 26.6667 45.4896 26.6667 45.0938 26.6875C44.7188 26.6875 44.3854 26.6875 44.0938 26.6875C43.7396 26.7083 43.4062 26.7188 43.0938 26.7188C42.6562 26.7396 42.1875 26.7812 41.6875 26.8438C41.2708 26.8854 40.8021 26.9375 40.2812 27C39.7604 27.0625 39.2604 27.1354 38.7812 27.2188L38.5625 26.8438ZM41.7812 8.125C41.1354 8.16667 40.6354 8.02083 40.2812 7.6875C39.9271 7.33333 39.7292 6.9375 39.6875 6.5C39.6458 6.0625 39.7604 5.65625 40.0312 5.28125C40.3229 4.88542 40.7812 4.64583 41.4062 4.5625C42.0521 4.47917 42.5625 4.61458 42.9375 4.96875C43.3333 5.32292 43.5625 5.72917 43.625 6.1875C43.6875 6.625 43.5729 7.05208 43.2812 7.46875C42.9896 7.86458 42.4896 8.08333 41.7812 8.125ZM53.4062 27.125C52.9479 27.0625 52.4375 27 51.875 26.9375C51.3125 26.875 50.7396 26.8333 50.1562 26.8125C49.5938 26.7708 49.0521 26.7708 48.5312 26.8125C48.0312 26.8333 47.6146 26.9062 47.2812 27.0312L47.0312 26.5C47.3229 26.375 47.5625 26.2604 47.75 26.1562C47.9583 26.0521 48.1146 25.9271 48.2188 25.7812C48.3438 25.6146 48.4375 25.3958 48.5 25.125C48.5625 24.8333 48.6146 24.4375 48.6562 23.9375C48.6771 23.6042 48.6979 23.1354 48.7188 22.5312C48.7396 21.9062 48.7604 21.2292 48.7812 20.5C48.8021 19.75 48.8125 18.9688 48.8125 18.1562C48.8125 17.3438 48.8021 16.5625 48.7812 15.8125C48.7604 15.0417 48.7292 14.3333 48.6875 13.6875C48.6458 13.0417 48.5938 12.5208 48.5312 12.125C48.4688 11.7083 48.3646 11.3958 48.2188 11.1875C48.0729 10.9583 47.8854 10.7917 47.6562 10.6875C47.4479 10.5833 47.1979 10.5208 46.9062 10.5C46.6354 10.4792 46.3333 10.4688 46 10.4688V9.90625C47.3125 10.0104 48.5 10.0625 49.5625 10.0625C50.625 10.0625 51.4896 9.96875 52.1562 9.78125L52.1875 10.1875C52.0625 10.2292 51.9479 10.3333 51.8438 10.5C51.7396 10.6458 51.6354 10.8854 51.5312 11.2188C51.4479 11.5521 51.3646 11.9896 51.2812 12.5312C51.2188 13.0729 51.1771 13.7604 51.1562 14.5938C51.4062 14.0938 51.6979 13.5938 52.0312 13.0938C52.3646 12.5938 52.7292 12.1562 53.125 11.7812C53.5417 11.4062 53.9896 11.1146 54.4688 10.9062C54.9688 10.6771 55.5 10.5833 56.0625 10.625C56.9583 10.7083 57.625 11.0417 58.0625 11.625C58.5208 12.2083 58.8333 12.8958 59 13.6875C59.625 12.4792 60.4167 11.5312 61.375 10.8438C62.3542 10.1562 63.4583 9.88542 64.6875 10.0312C65.4167 10.1354 66.0625 10.4688 66.625 11.0312C67.1875 11.5729 67.6458 12.25 68 13.0625C68.375 13.875 68.6146 14.7708 68.7188 15.75C68.8438 16.7292 68.8333 17.6771 68.6875 18.5938C68.5208 19.5104 68.2083 20.5208 67.75 21.625C67.3125 22.7292 66.8438 23.8333 66.3438 24.9375C65.8646 26.0417 65.4375 27.0833 65.0625 28.0625C64.6875 29.0417 64.5 29.8438 64.5 30.4688C64.5 31.4271 64.7292 32.125 65.1875 32.5625C65.6667 33.0208 66.2396 33.25 66.9062 33.25C67.2396 33.25 67.5729 33.1979 67.9062 33.0938C68.2604 32.9896 68.5729 32.8229 68.8438 32.5938C69.1354 32.3854 69.3646 32.1146 69.5312 31.7812C69.7188 31.4688 69.8125 31.0938 69.8125 30.6562C69.8125 30.0521 69.5938 29.6146 69.1562 29.3438C68.7188 29.0729 68.2812 28.9375 67.8438 28.9375C67.4062 28.9375 67.0312 29.0625 66.7188 29.3125C66.4062 29.5833 66.25 29.9167 66.25 30.3125C66.25 30.4167 66.2604 30.5312 66.2812 30.6562C66.3229 30.8021 66.375 30.9375 66.4375 31.0625C66.5208 31.1875 66.6354 31.2917 66.7812 31.375C66.9271 31.4792 67.1146 31.5312 67.3438 31.5312C67.5312 31.5312 67.6875 31.5 67.8125 31.4375C67.9375 31.375 68.0521 31.2917 68.1562 31.1875C67.8646 31.0833 67.6354 30.9271 67.4688 30.7188C67.3229 30.5104 67.3333 30.2708 67.5 30C67.5833 29.875 67.7083 29.7917 67.875 29.75C68.0417 29.7292 68.2083 29.75 68.375 29.8125C68.5625 29.8958 68.7083 30.0208 68.8125 30.1875C68.9375 30.3542 69 30.5625 69 30.8125C69 31.2292 68.8333 31.5625 68.5 31.8125C68.1667 32.0833 67.7917 32.2292 67.375 32.25C66.9375 32.2708 66.5417 32.1354 66.1875 31.8438C65.8333 31.5729 65.6562 31.1354 65.6562 30.5312C65.6562 29.9062 65.8542 29.3854 66.25 28.9688C66.6667 28.5521 67.2083 28.3438 67.875 28.3438C68.6667 28.3438 69.2917 28.5729 69.75 29.0312C70.2292 29.5104 70.4688 30.0938 70.4688 30.7812C70.4688 31.1354 70.4062 31.5208 70.2812 31.9375C70.1562 32.375 69.9375 32.7812 69.625 33.1562C69.3333 33.5312 68.9271 33.8438 68.4062 34.0938C67.9062 34.3646 67.2604 34.5 66.4688 34.5C65.9688 34.5 65.4896 34.4062 65.0312 34.2188C64.5938 34.0312 64.1979 33.75 63.8438 33.375C63.5104 33 63.2396 32.5417 63.0312 32C62.8438 31.4792 62.7396 30.875 62.7188 30.1875C62.7188 29.4375 62.8646 28.5938 63.1562 27.6562C63.4688 26.7396 63.8333 25.7396 64.25 24.6562C64.8958 22.9062 65.3438 21.2604 65.5938 19.7188C65.8438 18.1771 65.9062 16.8333 65.7812 15.6875C65.6562 14.5417 65.3542 13.6354 64.875 12.9688C64.4167 12.3021 63.7917 11.9688 63 11.9688C62.4792 11.9688 62.0208 12.1875 61.625 12.625C61.25 13.0625 60.9375 13.625 60.6875 14.3125C60.4375 15 60.2396 15.7708 60.0938 16.625C59.9479 17.4792 59.8333 18.3333 59.75 19.1875C59.6667 20.0208 59.6146 20.8021 59.5938 21.5312C59.5729 22.2396 59.5625 22.8125 59.5625 23.25C59.5625 23.7708 59.625 24.1875 59.75 24.5C59.8958 24.7917 60.0625 25.0208 60.25 25.1875C60.4583 25.3542 60.6667 25.4792 60.875 25.5625C61.1042 25.625 61.3125 25.6875 61.5 25.75L61.3125 26.25C61.0833 26.2083 60.6979 26.1667 60.1562 26.125C59.6146 26.0625 59.0417 26.0312 58.4375 26.0312C57.8333 26.0104 57.25 26.0312 56.6875 26.0938C56.1458 26.1562 55.7396 26.2812 55.4688 26.4688L55.3438 25.8125C55.5312 25.75 55.7188 25.6979 55.9062 25.6562C56.0938 25.5938 56.2604 25.4792 56.4062 25.3125C56.5729 25.1458 56.6979 24.8854 56.7812 24.5312C56.8854 24.1562 56.9583 23.625 57 22.9375C57.0625 21.5417 57.1562 20.2188 57.2812 18.9688C57.4271 17.7188 57.5312 16.625 57.5938 15.6875C57.6146 15.2083 57.6042 14.7604 57.5625 14.3438C57.5208 13.9062 57.4271 13.5312 57.2812 13.2188C57.1354 12.8854 56.9271 12.6354 56.6562 12.4688C56.3854 12.2812 56.0417 12.1875 55.625 12.1875C55.1875 12.2083 54.7083 12.3958 54.1875 12.75C53.6667 13.1042 53.1875 13.6042 52.75 14.25C52.3125 14.8958 51.9375 15.6771 51.625 16.5938C51.3333 17.4896 51.1875 18.4792 51.1875 19.5625L51.1562 19.5312C51.1979 20.2604 51.2292 20.9792 51.25 21.6875C51.2708 22.375 51.3021 22.9688 51.3438 23.4688C51.3854 23.9896 51.4271 24.4271 51.4688 24.7812C51.5104 25.1146 51.5938 25.3958 51.7188 25.625C51.8646 25.8542 52.0729 26.0417 52.3438 26.1875C52.6146 26.3125 52.9896 26.4167 53.4688 26.5L53.4062 27.125ZM70.8438 18.5312C70.9062 17.3021 71.1667 16.1562 71.625 15.0938C72.1042 14.0312 72.7188 13.125 73.4688 12.375C74.2188 11.6042 75.0625 11.0208 76 10.625C76.9583 10.2292 77.9479 10.0938 78.9688 10.2188C79.9896 10.3438 80.7708 10.6562 81.3125 11.1562C81.875 11.6562 82.2708 12.2188 82.5 12.8438C82.7292 13.4479 82.8542 14.0521 82.875 14.6562C82.8958 15.2604 82.8958 15.7292 82.875 16.0625C82.8542 16.375 82.8125 16.7188 82.75 17.0938C82.7083 17.4688 82.6562 17.8438 82.5938 18.2188C82.5521 18.5729 82.5312 18.9167 82.5312 19.25C82.5312 19.5625 82.5625 19.8229 82.625 20.0312C82.1042 19.8646 81.5 19.6875 80.8125 19.5C80.125 19.2917 79.375 19.1354 78.5625 19.0312C77.7708 18.9271 76.9375 18.8958 76.0625 18.9375C75.2083 18.9583 74.3542 19.1042 73.5 19.375C73.4792 20.1667 73.5312 20.9583 73.6562 21.75C73.8021 22.5208 74.0312 23.2604 74.3438 23.9688C74.6146 24.5729 74.9271 25.1042 75.2812 25.5625C75.6354 26.0208 76.0104 26.375 76.4062 26.625C76.8229 26.8542 77.2396 26.9792 77.6562 27C78.0938 27.0208 78.5312 26.8958 78.9688 26.625C79.3229 26.375 79.5938 26.0729 79.7812 25.7188C79.9479 25.4271 80.0104 25.0729 79.9688 24.6562C79.9479 24.2396 79.7292 23.7604 79.3125 23.2188L83.2188 23.0312C83.0729 23.4479 82.8542 23.9688 82.5625 24.5938C82.2917 25.2188 81.9167 25.8229 81.4375 26.4062C80.9583 26.9896 80.3646 27.4792 79.6562 27.875C78.9479 28.2708 78.0938 28.4479 77.0938 28.4062C76.0938 28.3438 75.1875 28.0208 74.375 27.4375C73.5833 26.875 72.9167 26.1354 72.375 25.2188C71.8333 24.3021 71.4271 23.2708 71.1562 22.125C70.8854 20.9583 70.7812 19.7604 70.8438 18.5312ZM78.5938 11.0312C78.0104 10.9688 77.4375 11.1146 76.875 11.4688C76.3333 11.8229 75.8333 12.3333 75.375 13C74.9375 13.6458 74.5625 14.4167 74.25 15.3125C73.9375 16.2083 73.7188 17.1458 73.5938 18.125C74.7812 17.9792 75.8854 17.9062 76.9062 17.9062C77.9271 17.8854 78.875 17.9479 79.75 18.0938C79.9792 17.6146 80.1875 17 80.375 16.25C80.5625 15.4792 80.6458 14.7292 80.625 14C80.6042 13.25 80.4375 12.5938 80.125 12.0312C79.8333 11.4688 79.3229 11.1354 78.5938 11.0312ZM84.3438 27.2812C84.7812 27.0312 85.1562 26.8021 85.4688 26.5938C85.8021 26.3854 86.0729 26.125 86.2812 25.8125C86.5104 25.4792 86.6771 25.0625 86.7812 24.5625C86.9062 24.0417 86.9896 23.3542 87.0312 22.5C87.0521 21.6458 87.1146 20.6042 87.2188 19.375C87.3229 18.1458 87.4167 16.875 87.5 15.5625C87.5833 14.25 87.6458 12.9688 87.6875 11.7188C87.7292 10.4688 87.7083 9.39583 87.625 8.5C87.5417 7.60417 87.4062 6.875 87.2188 6.3125C87.0312 5.75 86.8229 5.29167 86.5938 4.9375C86.3646 4.58333 86.1146 4.3125 85.8438 4.125C85.5729 3.91667 85.3125 3.75 85.0625 3.625L85.2812 3.125C85.7188 3.25 86.2396 3.36458 86.8438 3.46875C87.4688 3.55208 88.125 3.61458 88.8125 3.65625C89.5 3.69792 90.1979 3.70833 90.9062 3.6875C91.6354 3.66667 92.3333 3.60417 93 3.5L93.0938 4.0625C92.4896 4.35417 91.9583 4.97917 91.5 5.9375C91.0417 6.875 90.6979 8.21875 90.4688 9.96875C90.3646 10.6979 90.2708 11.6667 90.1875 12.875C90.1042 14.0833 90.0417 15.3854 90 16.7812C89.9792 17.5521 89.9688 18.3229 89.9688 19.0938C89.9896 19.8646 90.0104 20.6146 90.0312 21.3438C90.0729 22.0521 90.1146 22.7292 90.1562 23.375C90.2188 24 90.2812 24.5625 90.3438 25.0625C90.5521 25.2917 90.8646 25.4792 91.2812 25.625C91.7188 25.75 92.4271 25.8229 93.4062 25.8438C95.0312 25.8854 96.2812 25.5729 97.1562 24.9062C98.0312 24.2188 98.5833 23.3125 98.8125 22.1875C98.875 21.8542 98.9479 21.5 99.0312 21.125C99.0938 20.8125 99.1562 20.4688 99.2188 20.0938C99.2812 19.6979 99.3438 19.3125 99.4062 18.9375L100.312 19.0312C100.021 20.8021 99.8958 22.3958 99.9375 23.8125C100 25.2083 100.156 26.4271 100.406 27.4688C99.4896 27.3229 98.3542 27.1979 97 27.0938C95.6458 26.9896 94.2292 26.9375 92.75 26.9375C91.2917 26.9375 89.8438 27.0104 88.4062 27.1562C86.9688 27.3021 85.7188 27.5521 84.6562 27.9062L84.3438 27.2812ZM116.875 25.8438C116.812 26.1146 116.708 26.4167 116.562 26.75C116.417 27.0625 116.208 27.3438 115.938 27.5938C115.667 27.8646 115.333 28.0625 114.938 28.1875C114.562 28.3333 114.115 28.3438 113.594 28.2188C113.073 28.0938 112.656 27.8021 112.344 27.3438C112.052 26.8854 111.844 26.3021 111.719 25.5938C111.531 25.8854 111.292 26.1979 111 26.5312C110.729 26.8438 110.396 27.125 110 27.375C109.625 27.6458 109.188 27.8542 108.688 28C108.208 28.1667 107.677 28.2292 107.094 28.1875C106.302 28.125 105.594 27.9062 104.969 27.5312C104.365 27.1771 103.854 26.7188 103.438 26.1562C103.021 25.5729 102.708 24.9167 102.5 24.1875C102.312 23.4583 102.26 22.6979 102.344 21.9062C102.427 21.1146 102.635 20.4375 102.969 19.875C103.323 19.3125 103.76 18.8646 104.281 18.5312C104.802 18.1771 105.396 17.9375 106.062 17.8125C106.729 17.6875 107.417 17.6562 108.125 17.7188C109.062 17.8229 109.844 18.1042 110.469 18.5625C111.094 19 111.573 19.4896 111.906 20.0312C112.01 19.0729 112.042 18.0521 112 16.9688C111.958 15.8646 111.792 14.8646 111.5 13.9688C111.208 13.0521 110.76 12.3021 110.156 11.7188C109.552 11.1146 108.729 10.8229 107.688 10.8438C106.958 10.8438 106.354 10.9792 105.875 11.25C105.417 11.5 105.042 11.8021 104.75 12.1562C104.479 12.5104 104.292 12.875 104.188 13.25C104.083 13.6042 104.031 13.8854 104.031 14.0938C104.031 14.3021 104.094 14.5417 104.219 14.8125C104.344 15.0625 104.521 15.3021 104.75 15.5312C104.979 15.7396 105.25 15.9062 105.562 16.0312C105.875 16.1562 106.229 16.1875 106.625 16.125C106.896 16.0833 107.135 15.9896 107.344 15.8438C107.552 15.6979 107.719 15.5312 107.844 15.3438C107.969 15.1562 108.052 14.9583 108.094 14.75C108.156 14.5417 108.188 14.3438 108.188 14.1562C108.188 13.9479 108.125 13.7708 108 13.625C107.875 13.4583 107.729 13.3333 107.562 13.25C107.396 13.1667 107.208 13.1458 107 13.1875C106.792 13.2083 106.604 13.3021 106.438 13.4688C106.625 13.4479 106.812 13.4896 107 13.5938C107.188 13.6771 107.281 13.8646 107.281 14.1562C107.281 14.3854 107.188 14.5625 107 14.6875C106.812 14.7917 106.604 14.8333 106.375 14.8125C106.146 14.7917 105.938 14.6979 105.75 14.5312C105.562 14.3438 105.469 14.0625 105.469 13.6875C105.469 13.3333 105.615 13.0312 105.906 12.7812C106.219 12.5312 106.573 12.4062 106.969 12.4062C107.448 12.4062 107.885 12.5938 108.281 12.9688C108.698 13.3438 108.906 13.8646 108.906 14.5312C108.906 14.7604 108.844 15.0104 108.719 15.2812C108.615 15.5312 108.448 15.7708 108.219 16C107.99 16.2292 107.688 16.4271 107.312 16.5938C106.938 16.7396 106.5 16.8125 106 16.8125C105.5 16.8125 105.052 16.7188 104.656 16.5312C104.26 16.3229 103.927 16.0729 103.656 15.7812C103.385 15.4688 103.177 15.1354 103.031 14.7812C102.906 14.4062 102.844 14.0521 102.844 13.7188C102.844 13.3854 102.948 12.9688 103.156 12.4688C103.365 11.9479 103.688 11.4583 104.125 11C104.583 10.5417 105.146 10.1458 105.812 9.8125C106.5 9.47917 107.312 9.3125 108.25 9.3125C110.771 9.3125 112.51 10.1979 113.469 11.9688C114.427 13.7188 114.583 16.3333 113.938 19.8125C113.688 21.2083 113.552 22.3438 113.531 23.2188C113.51 24.0938 113.562 24.7917 113.688 25.3125C113.812 25.8333 113.99 26.1979 114.219 26.4062C114.469 26.6146 114.729 26.7396 115 26.7812C115.229 26.8229 115.448 26.8021 115.656 26.7188C115.823 26.6771 115.979 26.5833 116.125 26.4375C116.292 26.2708 116.406 26.0208 116.469 25.6875L116.875 25.8438ZM111.594 24.25C111.573 23.5 111.604 22.7083 111.688 21.875C111.521 21.2292 111.177 20.6354 110.656 20.0938C110.156 19.5312 109.583 19.1979 108.938 19.0938C108.458 19.0104 107.958 19.0208 107.438 19.125C106.938 19.2083 106.49 19.3958 106.094 19.6875C105.698 19.9583 105.385 20.3438 105.156 20.8438C104.927 21.3438 104.844 21.9583 104.906 22.6875C105.01 23.8125 105.323 24.6667 105.844 25.25C106.385 25.8333 107.177 26.0938 108.219 26.0312C109.01 25.9896 109.677 25.7917 110.219 25.4375C110.781 25.0625 111.24 24.6667 111.594 24.25ZM121.188 15.2188C121.438 14.4479 121.792 13.6771 122.25 12.9062C122.708 12.1354 123.229 11.4479 123.812 10.8438C124.417 10.2188 125.062 9.72917 125.75 9.375C126.458 9.02083 127.188 8.86458 127.938 8.90625C128.625 8.96875 129.188 9.27083 129.625 9.8125C130.083 10.3542 130.448 11 130.719 11.75C130.99 12.4792 131.167 13.2396 131.25 14.0312C131.354 14.8021 131.396 15.4479 131.375 15.9688C131.333 16.6146 131.198 17.2396 130.969 17.8438C130.76 18.4271 130.521 19.0208 130.25 19.625C130 20.2083 129.76 20.8125 129.531 21.4375C129.302 22.0625 129.167 22.7188 129.125 23.4062C129.083 24.0938 129.156 24.75 129.344 25.375C129.552 25.9792 129.844 26.4479 130.219 26.7812C130.594 27.1146 131.031 27.25 131.531 27.1875C132.052 27.1458 132.583 26.7917 133.125 26.125L133.531 26.4688C133.323 26.8229 132.979 27.1667 132.5 27.5C132.021 27.8542 131.458 28.0312 130.812 28.0312C130.375 28.0312 129.938 27.9375 129.5 27.75C129.083 27.5833 128.698 27.3125 128.344 26.9375C128.01 26.5417 127.729 26.0417 127.5 25.4375C127.292 24.8333 127.177 24.0938 127.156 23.2188C127.156 22.4896 127.25 21.8125 127.438 21.1875C127.625 20.5625 127.823 19.9375 128.031 19.3125C128.26 18.6875 128.458 18.0417 128.625 17.375C128.812 16.6875 128.896 15.9271 128.875 15.0938C128.833 14.3229 128.708 13.6979 128.5 13.2188C128.312 12.7188 128.073 12.3438 127.781 12.0938C127.51 11.8229 127.208 11.6562 126.875 11.5938C126.562 11.5104 126.271 11.4896 126 11.5312C125.438 11.6354 124.865 11.9583 124.281 12.5C123.698 13.0208 123.167 13.6875 122.688 14.5C122.229 15.2917 121.854 16.1979 121.562 17.2188C121.271 18.2396 121.115 19.2812 121.094 20.3438V20.2812C121.094 20.8021 121.083 21.2604 121.062 21.6562C121.042 22.0521 121.052 22.3854 121.094 22.6562C121.094 23.2604 121.146 23.7396 121.25 24.0938C121.375 24.4271 121.51 24.6875 121.656 24.875C121.802 25.0625 121.958 25.1979 122.125 25.2812C122.312 25.3438 122.469 25.3854 122.594 25.4062L122.562 25.9688C122.271 25.9062 121.896 25.875 121.438 25.875C121 25.8542 120.521 25.875 120 25.9375C119.479 26 118.938 26.1146 118.375 26.2812C117.833 26.4479 117.333 26.6771 116.875 26.9688L116.656 26.5312C116.969 26.2812 117.24 26.0625 117.469 25.875C117.719 25.6667 117.927 25.4062 118.094 25.0938C118.281 24.7812 118.438 24.375 118.562 23.875C118.688 23.375 118.781 22.7188 118.844 21.9062C118.969 20.2604 119.052 18.6458 119.094 17.0625C119.135 15.4583 119.094 13.9688 118.969 12.5938C118.927 12.1562 118.812 11.8229 118.625 11.5938C118.458 11.3646 118.25 11.2083 118 11.125C117.75 11.0208 117.49 10.9688 117.219 10.9688C116.948 10.9688 116.688 10.9792 116.438 11L116.406 10.4688C116.865 10.4271 117.333 10.375 117.812 10.3125C118.312 10.25 118.792 10.1875 119.25 10.125C119.708 10.0625 120.115 10 120.469 9.9375C120.844 9.85417 121.135 9.76042 121.344 9.65625C121.302 10.3229 121.271 10.9896 121.25 11.6562C121.25 12.3021 121.24 12.8958 121.219 13.4375C121.198 14.0625 121.188 14.6562 121.188 15.2188ZM133.875 17.125C133.917 16.125 134.115 15.1354 134.469 14.1562C134.844 13.1562 135.333 12.2708 135.938 11.5C136.542 10.7083 137.24 10.0833 138.031 9.625C138.823 9.16667 139.667 8.96875 140.562 9.03125C141.25 9.07292 141.844 9.25 142.344 9.5625C142.844 9.85417 143.271 10.2396 143.625 10.7188C144 11.1771 144.312 11.7083 144.562 12.3125C144.812 12.8958 145.021 13.5 145.188 14.125C145.146 12.8542 145.083 11.5625 145 10.25C144.917 8.9375 144.792 7.70833 144.625 6.5625C144.521 5.8125 144.396 5.07292 144.25 4.34375C144.125 3.71875 143.969 3.07292 143.781 2.40625C143.615 1.71875 143.417 1.10417 143.188 0.5625C144.104 0.708333 145.104 0.833333 146.188 0.9375C147.292 1.02083 148.521 0.854167 149.875 0.4375V1.0625C149.562 1.14583 149.24 1.23958 148.906 1.34375C148.573 1.42708 148.271 1.58333 148 1.8125C147.75 2.04167 147.531 2.375 147.344 2.8125C147.177 3.22917 147.083 3.80208 147.062 4.53125C147.042 5.03125 147.031 5.66667 147.031 6.4375C147.031 7.1875 147.031 8.03125 147.031 8.96875C147.031 9.88542 147.031 10.8542 147.031 11.875C147.052 12.875 147.073 13.8646 147.094 14.8438C147.115 15.8021 147.135 16.7188 147.156 17.5938C147.198 18.4479 147.24 19.1979 147.281 19.8438C147.344 20.8021 147.469 21.5833 147.656 22.1875C147.844 22.7917 148.083 23.2812 148.375 23.6562C148.667 24.0104 149 24.2917 149.375 24.5C149.75 24.7083 150.156 24.8854 150.594 25.0312L150.438 25.5938C150.083 25.5312 149.656 25.4688 149.156 25.4062C148.656 25.3438 148.125 25.3125 147.562 25.3125C147 25.3125 146.417 25.3438 145.812 25.4062C145.208 25.4688 144.646 25.5833 144.125 25.75C144.292 24.9792 144.458 24.2292 144.625 23.5C144.792 22.7708 144.927 21.9271 145.031 20.9688C144.802 21.4688 144.49 22.0104 144.094 22.5938C143.719 23.1771 143.26 23.7188 142.719 24.2188C142.198 24.7188 141.594 25.125 140.906 25.4375C140.219 25.75 139.469 25.875 138.656 25.8125C137.677 25.75 136.865 25.4479 136.219 24.9062C135.594 24.3646 135.094 23.6875 134.719 22.875C134.365 22.0417 134.125 21.125 134 20.125C133.875 19.125 133.833 18.125 133.875 17.125ZM141.094 10.2812C140.49 10.2604 139.917 10.4271 139.375 10.7812C138.854 11.1354 138.385 11.6354 137.969 12.2812C137.552 12.9062 137.208 13.6562 136.938 14.5312C136.688 15.3854 136.531 16.3125 136.469 17.3125C136.406 18.3542 136.438 19.2292 136.562 19.9375C136.688 20.6458 136.885 21.2292 137.156 21.6875C137.448 22.1458 137.802 22.4896 138.219 22.7188C138.656 22.9479 139.125 23.0833 139.625 23.125C140.458 23.2083 141.198 23.0938 141.844 22.7812C142.49 22.4688 143.031 22.0521 143.469 21.5312C143.906 21.0104 144.24 20.4479 144.469 19.8438C144.719 19.2188 144.854 18.6354 144.875 18.0938C144.896 17.5729 144.823 16.8854 144.656 16.0312C144.49 15.1562 144.24 14.3021 143.906 13.4688C143.594 12.6146 143.198 11.875 142.719 11.25C142.24 10.625 141.698 10.3021 141.094 10.2812Z" fill="#2C2C2C"/>
</svg>
